<?xml version="1.0" standalone="no"?>
<!DOCTYPE svg PUBLIC "-//W3C//DTD SVG 20010904//EN"
 "http://www.w3.org/TR/2001/REC-SVG-20010904/DTD/svg10.dtd">
<svg version="1.0" xmlns="http://www.w3.org/2000/svg"
 width="260.000000pt" height="260.000000pt" viewBox="0 0 260.000000 260.000000"
 preserveAspectRatio="xMidYMid meet">
<metadata>
Created by potrace 1.11, written by Peter Selinger 2001-2013
</metadata>
<g transform="translate(0.000000,260.000000) scale(0.100000,-0.100000)"
fill="#000000" stroke="none">
<path d="M478 1935 c-7 -6 -158 -18 -211 -16 -31 1 -66 -3 -77 -9 -47 -25 -48
-34 -48 -560 0 -434 2 -498 16 -522 36 -62 134 -52 169 17 5 12 9 113 9 241
l-2 222 71 15 c52 12 105 14 211 10 137 -5 142 -4 168 19 54 46 42 128 -21
155 -39 16 -256 24 -372 13 l-53 -5 0 105 0 105 34 8 c70 16 274 16 339 0 103
-25 147 -16 173 36 29 55 3 90 -88 121 -60 20 -75 23 -141 36 -33 6 -172 13
-177 9z"/>
<path d="M2085 1788 c-47 -52 -229 -323 -320 -475 -27 -46 -54 -83 -59 -83
-27 -1 -51 -32 -52 -68 -1 -20 -23 -83 -48 -139 -53 -114 -55 -153 -9 -187 33
-25 97 -25 124 0 12 11 46 71 77 134 30 63 55 116 56 117 4 6 184 23 294 27
33 1 34 0 61 -79 65 -189 122 -252 194 -213 54 28 61 85 21 181 -28 69 -103
375 -139 565 -38 202 -57 254 -100 266 -40 11 -54 5 -100 -46z m29 -351 c2
-12 9 -50 16 -85 7 -34 10 -65 7 -68 -2 -3 -44 -8 -92 -11 l-87 -5 26 44 c15
23 45 76 68 116 44 76 49 77 62 9z"/>
<path d="M1430 1573 c-8 -4 -21 -13 -28 -22 -16 -21 -82 -158 -82 -171 0 -9
-76 -211 -100 -265 -5 -11 -12 -30 -15 -42 -4 -13 -10 -23 -14 -23 -8 0 -58
161 -106 345 -39 146 -52 169 -96 173 -46 4 -80 -33 -73 -76 26 -142 173 -612
209 -666 38 -57 100 -45 136 25 19 38 95 231 179 456 21 56 50 122 64 146 32
54 33 77 3 105 -23 22 -47 26 -77 15z"/>
</g>
</svg>
